<svg width="508.28" height="152.38" xmlns="http://www.w3.org/2000/svg" data-name="Layer 1">

 <g>
  <title>Layer 1</title>
  <g id="svg_1">
   <rect id="svg_2" height="5.86" width="5.86" y="114.66" x="459.61"/>
   <rect id="svg_3" height="5.86" width="5.86" y="126.37" x="459.61"/>
   <path id="svg_4" d="m412.77,102.95l0,23.43l-5.86,0l0,-11.71l-29.28,0l0,17.57l76.12,0l0,-17.57l-29.27,0l0,11.71l-5.86,0l0,-17.57l46.85,0l0,-5.86l-52.7,0zm-11.72,23.42l-17.57,0l0,-5.85l17.57,0l0,5.85zm29.28,-5.85l17.57,0l0,5.85l-17.57,0l0,-5.85z"/>
   <rect id="svg_5" height="5.86" width="5.86" y="44.39" x="471.32"/>
   <rect id="svg_6" height="5.86" width="5.86" y="44.39" x="483.04"/>
   <path id="svg_7" d="m471.33,56.09l0,29.29l11.71,0l0,5.85l-17.57,0l0,-46.85l-5.86,0l0,52.71l23.43,0l0,5.85l-11.71,0l0,29.28l17.56,0l0,-76.14l-17.56,0l0,0.01zm11.71,70.28l-5.86,0l0,-17.56l5.86,0l0,17.56zm0,-46.85l-5.86,0l0,-17.56l5.86,0l0,17.56z"/>
   <rect id="svg_8" height="5.86" width="5.86" y="32.67" x="401.05"/>
   <rect id="svg_9" height="5.86" width="5.86" y="20.96" x="401.05"/>
   <path id="svg_10" d="m412.77,20.96l0,17.57l29.27,0l0,-11.71l5.86,0l0,17.57l-46.85,0l0,5.86l52.7,0l0,-23.43l5.86,0l0,11.71l29.28,0l0,-17.57l-76.12,0zm23.42,11.71l-17.57,0l0,-5.85l17.57,0l0,5.85zm46.85,0l-17.57,0l0,-5.85l17.57,0l0,5.85z"/>
   <rect id="svg_11" height="5.86" width="5.86" y="102.95" x="389.34"/>
   <rect id="svg_12" height="5.86" width="5.86" y="102.95" x="377.62"/>
   <path id="svg_13" d="m383.48,56.09l0,-5.85l11.71,0l0,-29.28l-17.56,0l0,76.14l17.56,0l0,-29.28l-11.71,0l0,-5.85l17.57,0l0,46.85l5.85,0l0,-52.71l-23.42,0l0,-0.02zm0,-29.27l5.86,0l0,17.56l-5.86,0l0,-17.56zm5.86,64.41l-5.86,0l0,-17.56l5.86,0l0,17.56z"/>
   <path id="svg_14" fill="#7d7150" d="m440.74,69.68c0.58,1.22 0.91,2.57 1.06,3.84c-1.41,-1.83 -3.14,-3.45 -4.98,-4.66c0.16,0.2 0.31,0.42 0.45,0.64c1.51,2.45 1.25,5.7 0.38,8.33c-0.55,-2.47 -1.48,-4.88 -2.71,-6.95c-0.28,-0.47 -0.58,-0.94 -0.9,-1.39l0.44,11.07c0,0.39 -0.46,1.09 -1.23,1.09s-1.23,-0.7 -1.23,-1.09l0.43,-11.06c-0.33,0.45 -0.62,0.91 -0.9,1.38c-1.23,2.07 -2.16,4.47 -2.71,6.95c-0.87,-2.62 -1.13,-5.87 0.38,-8.33c0.14,-0.23 0.29,-0.44 0.45,-0.64c-1.83,1.21 -3.56,2.83 -4.98,4.66c0.29,-2.55 1.32,-5.42 3.6,-6.86c0.76,-0.48 1.58,-0.79 2.42,-0.97c0,-0.05 0,-0.03 0,-0.09c-0.49,0.03 -0.97,0.08 -1.46,0.15c-2.11,0.32 -4.16,0.93 -6.1,1.84c1.42,-2.17 3.68,-3.8 5.8,-4.08c0.34,-0.05 0.7,-0.06 1.06,-0.05c-1.28,-0.65 -2.65,-1.19 -4.09,-1.57c1.94,-0.52 4.03,-0.41 5.85,0.4c0.53,-2.24 1.48,-3.56 1.48,-3.56c0,0 0.94,1.32 1.48,3.56c1.81,-0.81 3.91,-0.91 5.85,-0.4c-1.43,0.38 -2.81,0.92 -4.09,1.57c0.36,-0.02 0.72,0 1.05,0.05c1.06,0.14 2.16,0.62 3.16,1.33c1.01,0.71 1.93,1.67 2.64,2.75c-1.95,-0.91 -3.99,-1.52 -6.1,-1.84c-0.49,-0.08 -0.97,-0.12 -1.46,-0.15c0,0.06 0,0.04 0,0.09c0.84,0.18 1.66,0.49 2.42,0.97c1.14,0.72 1.96,1.8 2.54,3.02" class="cls-1"/>
   <path id="svg_15" fill="#7d7150" d="m453.75,77.33c-2.26,-0.25 -4.62,0.21 -6.71,1.49l-11.89,7.27l4.77,2.91l0.66,-1.08s-0.04,-0.02 -0.06,-0.02c-0.53,-0.33 -0.7,-1.03 -0.37,-1.56c0.33,-0.53 1.02,-0.7 1.55,-0.37c0.53,0.33 0.7,1.02 0.37,1.55l-1.25,2.05l0.63,0.39l1.42,0.87c0.48,0.3 1.05,0.32 1.53,0.11c0.02,0.25 -0.02,0.51 -0.11,0.75c-0.03,0.09 -0.08,0.17 -0.13,0.26c-0.48,0.79 -1.52,1.04 -2.31,0.55l-2.05,-1.25l-0.66,1.09s0.03,0.01 0.04,0.02c0.53,0.33 0.7,1.02 0.38,1.55c-0.33,0.53 -1.03,0.71 -1.56,0.38c-0.53,-0.33 -0.7,-1.03 -0.37,-1.56l1.26,-2.05l-5.63,-3.44l-5.63,3.44l1.26,2.05c0.32,0.53 0.15,1.23 -0.38,1.56c-0.53,0.33 -1.23,0.15 -1.55,-0.38c-0.33,-0.53 -0.16,-1.22 0.37,-1.55c0.02,0 0.03,-0.02 0.05,-0.03l-0.66,-1.08l-2.05,1.25c-0.8,0.49 -1.83,0.24 -2.32,-0.55c-0.05,-0.08 -0.09,-0.17 -0.13,-0.26c-0.09,-0.24 -0.13,-0.5 -0.11,-0.75c0.49,0.21 1.06,0.18 1.54,-0.11l1.42,-0.87l0.64,-0.39l-1.26,-2.05c-0.33,-0.53 -0.15,-1.23 0.38,-1.55c0.53,-0.33 1.22,-0.16 1.55,0.37c0.33,0.53 0.16,1.23 -0.37,1.56c-0.02,0 -0.03,0.02 -0.05,0.02l0.66,1.08l4.77,-2.91l-11.89,-7.27c-2.09,-1.28 -4.45,-1.74 -6.71,-1.49c2.25,-1.53 5.26,-1.7 7.74,-0.19l12.75,7.79l12.75,-7.79c2.47,-1.51 5.49,-1.34 7.74,0.19" class="cls-1"/>
  </g>
  <g id="svg_16">
   <g id="svg_17">
    <path id="svg_18" fill="#7d7150" d="m96.77,107.2c-0.14,0 -0.25,-0.08 -0.31,-0.24l-3.23,-6.63l-3.57,0c-0.09,0 -0.14,0.05 -0.14,0.14l0,6.49c0,0.16 -0.08,0.24 -0.24,0.24l-1.67,0c-0.16,0 -0.24,-0.08 -0.24,-0.24l0,-15.75c0,-0.16 0.08,-0.24 0.24,-0.24l5.88,0c0.76,0 1.46,0.11 2.08,0.33c0.62,0.22 1.16,0.54 1.6,0.94c0.45,0.41 0.79,0.9 1.04,1.48c0.25,0.58 0.37,1.22 0.37,1.92c0,1.1 -0.29,2.03 -0.86,2.79c-0.57,0.76 -1.35,1.3 -2.34,1.62l3.46,6.85c0.05,0.08 0.06,0.15 0.02,0.2c-0.03,0.06 -0.09,0.08 -0.17,0.08l-1.93,0l0.01,0.02zm-3.33,-8.85c0.95,0 1.69,-0.23 2.21,-0.7c0.52,-0.47 0.78,-1.13 0.78,-1.99s-0.26,-1.52 -0.78,-1.99c-0.52,-0.47 -1.26,-0.7 -2.21,-0.7l-3.78,0c-0.09,0 -0.14,0.05 -0.14,0.14l0,5.11c0,0.1 0.05,0.14 0.14,0.14l3.78,0l0,-0.01z" class="cls-1"/>
    <path id="svg_19" fill="#7d7150" d="m107.82,107.46c-1.37,0 -2.53,-0.32 -3.47,-0.95c-0.95,-0.64 -1.63,-1.58 -2.04,-2.84c-0.08,-0.24 -0.15,-0.49 -0.2,-0.74c-0.06,-0.25 -0.1,-0.55 -0.13,-0.89c-0.03,-0.34 -0.06,-0.75 -0.07,-1.23c-0.02,-0.48 -0.02,-1.05 -0.02,-1.72s0,-1.24 0.02,-1.72c0.02,-0.48 0.04,-0.89 0.07,-1.23c0.03,-0.34 0.08,-0.64 0.13,-0.89c0.06,-0.25 0.12,-0.5 0.2,-0.74c0.41,-1.26 1.09,-2.2 2.04,-2.84c0.95,-0.64 2.1,-0.95 3.47,-0.95s2.55,0.32 3.5,0.95c0.95,0.64 1.63,1.58 2.04,2.84c0.08,0.24 0.15,0.49 0.2,0.74c0.06,0.25 0.1,0.55 0.13,0.89c0.03,0.34 0.06,0.75 0.07,1.23s0.02,1.05 0.02,1.72s0,1.24 -0.02,1.72c-0.02,0.48 -0.04,0.89 -0.07,1.23c-0.03,0.34 -0.08,0.64 -0.13,0.89c-0.06,0.25 -0.12,0.5 -0.2,0.74c-0.41,1.26 -1.09,2.2 -2.04,2.84c-0.95,0.64 -2.11,0.95 -3.5,0.95zm0,-1.98c0.91,0 1.65,-0.21 2.22,-0.62c0.57,-0.41 0.99,-1.01 1.24,-1.79c0.05,-0.14 0.09,-0.32 0.13,-0.54s0.08,-0.48 0.12,-0.8c0.04,-0.32 0.07,-0.69 0.08,-1.12s0.02,-0.94 0.02,-1.53s0,-1.1 -0.02,-1.53s-0.04,-0.8 -0.08,-1.12c-0.04,-0.32 -0.08,-0.58 -0.12,-0.8c-0.04,-0.21 -0.08,-0.39 -0.13,-0.54c-0.25,-0.78 -0.67,-1.38 -1.24,-1.79c-0.57,-0.41 -1.31,-0.62 -2.22,-0.62s-1.64,0.21 -2.21,0.62c-0.57,0.41 -0.98,1.01 -1.23,1.79c-0.05,0.14 -0.09,0.32 -0.13,0.54c-0.04,0.21 -0.08,0.48 -0.12,0.8c-0.04,0.32 -0.07,0.69 -0.08,1.12s-0.02,0.94 -0.02,1.53s0,1.1 0.02,1.53s0.04,0.8 0.08,1.12c0.04,0.32 0.08,0.58 0.12,0.8s0.08,0.39 0.13,0.54c0.25,0.78 0.66,1.38 1.23,1.79c0.56,0.41 1.3,0.62 2.21,0.62z" class="cls-1"/>
    <path id="svg_20" fill="#7d7150" d="m121.04,107.2c-0.16,0 -0.24,-0.08 -0.24,-0.24l0,-6.4l-4.8,-9.33c-0.06,-0.17 0,-0.26 0.19,-0.26l1.69,0c0.14,0 0.26,0.08 0.36,0.24l3.63,6.95l0.05,0l3.6,-6.95c0.06,-0.16 0.17,-0.24 0.33,-0.24l1.65,0c0.19,0 0.25,0.09 0.19,0.26l-4.8,9.33l0,6.4c0,0.16 -0.08,0.24 -0.24,0.24l-1.62,0l0.01,0z" class="cls-1"/>
    <path id="svg_21" fill="#7d7150" d="m133.29,91.21c0.05,-0.16 0.14,-0.24 0.29,-0.24l1.55,0c0.16,0 0.26,0.08 0.31,0.24l5.56,15.75c0.05,0.16 0,0.24 -0.17,0.24l-1.67,0c-0.16,0 -0.26,-0.08 -0.31,-0.24l-1.24,-3.53l-6.56,0l-1.24,3.53c-0.06,0.16 -0.17,0.24 -0.31,0.24l-1.67,0c-0.16,0 -0.21,-0.08 -0.17,-0.24l5.63,-15.75zm3.62,10.24l-2.55,-7.35l-0.05,0l-2.58,7.35l5.18,0z" class="cls-1"/>
    <path id="svg_22" fill="#7d7150" d="m143.93,91.21c0,-0.16 0.08,-0.24 0.24,-0.24l1.67,0c0.16,0 0.24,0.08 0.24,0.24l0,13.87c0,0.1 0.05,0.14 0.14,0.14l7.73,0c0.16,0 0.24,0.08 0.24,0.24l0,1.5c0,0.16 -0.08,0.24 -0.24,0.24l-9.78,0c-0.16,0 -0.24,-0.08 -0.24,-0.24l0,-15.75z" class="cls-1"/>
    <path id="svg_23" fill="#7d7150" d="m163.07,103.65c-0.08,-0.24 -0.15,-0.48 -0.2,-0.73c-0.06,-0.25 -0.1,-0.54 -0.13,-0.88c-0.03,-0.34 -0.06,-0.75 -0.07,-1.23c-0.02,-0.48 -0.02,-1.05 -0.02,-1.72s0,-1.24 0.02,-1.72c0.02,-0.48 0.04,-0.89 0.07,-1.23c0.03,-0.34 0.08,-0.64 0.13,-0.88c0.06,-0.25 0.12,-0.49 0.2,-0.73c0.41,-1.29 1.08,-2.25 2,-2.88c0.92,-0.63 2.05,-0.94 3.39,-0.94c1.21,0 2.26,0.28 3.16,0.85c0.9,0.57 1.58,1.37 2.04,2.42c0.05,0.14 0.02,0.25 -0.1,0.31l-1.43,0.69c-0.16,0.08 -0.27,0.04 -0.33,-0.12c-0.32,-0.64 -0.74,-1.16 -1.26,-1.56c-0.53,-0.41 -1.22,-0.61 -2.08,-0.61s-1.61,0.21 -2.15,0.62c-0.54,0.41 -0.95,1 -1.22,1.77c-0.05,0.18 -0.09,0.36 -0.13,0.56c-0.04,0.2 -0.07,0.45 -0.1,0.74c-0.02,0.29 -0.04,0.66 -0.06,1.1c-0.02,0.44 -0.02,0.97 -0.02,1.61s0,1.17 0.02,1.61c0.02,0.44 0.04,0.8 0.06,1.1c0.02,0.29 0.06,0.55 0.1,0.75c0.04,0.21 0.08,0.39 0.13,0.55c0.27,0.76 0.68,1.35 1.22,1.77c0.54,0.41 1.26,0.62 2.15,0.62s1.55,-0.2 2.08,-0.61c0.53,-0.41 0.95,-0.93 1.26,-1.56c0.06,-0.16 0.18,-0.2 0.33,-0.12l1.43,0.69c0.11,0.06 0.14,0.17 0.1,0.31c-0.46,1.05 -1.14,1.86 -2.04,2.42c-0.9,0.57 -1.95,0.85 -3.16,0.85c-1.34,0 -2.47,-0.31 -3.39,-0.94c-0.92,-0.63 -1.59,-1.59 -2,-2.88z" class="cls-1"/>
    <path id="svg_24" fill="#7d7150" d="m182.45,107.46c-1.37,0 -2.53,-0.32 -3.47,-0.95c-0.95,-0.64 -1.63,-1.58 -2.04,-2.84c-0.08,-0.24 -0.15,-0.49 -0.2,-0.74c-0.06,-0.25 -0.1,-0.55 -0.13,-0.89c-0.03,-0.34 -0.06,-0.75 -0.07,-1.23c-0.02,-0.48 -0.02,-1.05 -0.02,-1.72s0,-1.24 0.02,-1.72c0.02,-0.48 0.04,-0.89 0.07,-1.23c0.03,-0.34 0.08,-0.64 0.13,-0.89c0.06,-0.25 0.12,-0.5 0.2,-0.74c0.41,-1.26 1.09,-2.2 2.04,-2.84c0.95,-0.64 2.1,-0.95 3.47,-0.95s2.55,0.32 3.5,0.95c0.95,0.64 1.63,1.58 2.04,2.84c0.08,0.24 0.15,0.49 0.2,0.74c0.06,0.25 0.1,0.55 0.13,0.89c0.03,0.34 0.06,0.75 0.07,1.23s0.02,1.05 0.02,1.72s0,1.24 -0.02,1.72c-0.02,0.48 -0.04,0.89 -0.07,1.23c-0.03,0.34 -0.08,0.64 -0.13,0.89c-0.06,0.25 -0.12,0.5 -0.2,0.74c-0.41,1.26 -1.09,2.2 -2.04,2.84c-0.95,0.64 -2.11,0.95 -3.5,0.95zm0,-1.98c0.91,0 1.65,-0.21 2.22,-0.62c0.57,-0.41 0.99,-1.01 1.24,-1.79c0.05,-0.14 0.09,-0.32 0.13,-0.54s0.08,-0.48 0.12,-0.8c0.04,-0.32 0.07,-0.69 0.08,-1.12s0.02,-0.94 0.02,-1.53s0,-1.1 -0.02,-1.53s-0.04,-0.8 -0.08,-1.12c-0.04,-0.32 -0.08,-0.58 -0.12,-0.8c-0.04,-0.21 -0.08,-0.39 -0.13,-0.54c-0.25,-0.78 -0.67,-1.38 -1.24,-1.79c-0.57,-0.41 -1.31,-0.62 -2.22,-0.62s-1.64,0.21 -2.21,0.62c-0.57,0.41 -0.98,1.01 -1.23,1.79c-0.05,0.14 -0.09,0.32 -0.13,0.54c-0.04,0.21 -0.08,0.48 -0.12,0.8c-0.04,0.32 -0.07,0.69 -0.08,1.12s-0.02,0.94 -0.02,1.53s0,1.1 0.02,1.53s0.04,0.8 0.08,1.12c0.04,0.32 0.08,0.58 0.12,0.8s0.08,0.39 0.13,0.54c0.25,0.78 0.66,1.38 1.23,1.79c0.56,0.41 1.3,0.62 2.21,0.62z" class="cls-1"/>
    <path id="svg_25" fill="#7d7150" d="m192.21,91.21c0,-0.16 0.08,-0.24 0.24,-0.24l1.55,0c0.19,0 0.32,0.08 0.38,0.24l4.85,10.93l0.07,0l4.76,-10.93c0.06,-0.16 0.19,-0.24 0.38,-0.24l1.55,0c0.16,0 0.24,0.08 0.24,0.24l0,15.75c0,0.16 -0.08,0.24 -0.24,0.24l-1.52,0c-0.16,0 -0.24,-0.08 -0.24,-0.24l0,-11.29l-0.07,0l-4.02,8.93c-0.08,0.19 -0.22,0.29 -0.43,0.29l-0.95,0c-0.22,0 -0.37,-0.1 -0.45,-0.29l-4.02,-8.93l-0.07,0l0,11.29c0,0.16 -0.08,0.24 -0.24,0.24l-1.52,0c-0.16,0 -0.24,-0.08 -0.24,-0.24l0,-15.75l-0.01,0z" class="cls-1"/>
    <path id="svg_26" fill="#7d7150" d="m210.59,91.21c0,-0.16 0.08,-0.24 0.24,-0.24l1.55,0c0.19,0 0.32,0.08 0.38,0.24l4.85,10.93l0.07,0l4.76,-10.93c0.06,-0.16 0.19,-0.24 0.38,-0.24l1.55,0c0.16,0 0.24,0.08 0.24,0.24l0,15.75c0,0.16 -0.08,0.24 -0.24,0.24l-1.52,0c-0.16,0 -0.24,-0.08 -0.24,-0.24l0,-11.29l-0.07,0l-4.02,8.93c-0.08,0.19 -0.22,0.29 -0.43,0.29l-0.95,0c-0.22,0 -0.37,-0.1 -0.45,-0.29l-4.02,-8.93l-0.07,0l0,11.29c0,0.16 -0.08,0.24 -0.24,0.24l-1.52,0c-0.16,0 -0.24,-0.08 -0.24,-0.24l0,-15.75l-0.01,0z" class="cls-1"/>
    <path id="svg_27" fill="#7d7150" d="m228.97,91.21c0,-0.16 0.08,-0.24 0.24,-0.24l1.67,0c0.16,0 0.24,0.08 0.24,0.24l0,15.75c0,0.16 -0.08,0.24 -0.24,0.24l-1.67,0c-0.16,0 -0.24,-0.08 -0.24,-0.24l0,-15.75z" class="cls-1"/>
    <path id="svg_28" fill="#7d7150" d="m240.38,107.46c-0.57,0 -1.14,-0.06 -1.7,-0.17c-0.56,-0.11 -1.08,-0.26 -1.57,-0.44c-0.49,-0.18 -0.95,-0.4 -1.36,-0.64c-0.41,-0.25 -0.77,-0.5 -1.07,-0.78c-0.11,-0.11 -0.12,-0.23 -0.02,-0.36l1.05,-1.24c0.1,-0.11 0.21,-0.12 0.33,-0.02c0.53,0.41 1.18,0.8 1.96,1.15c0.78,0.35 1.64,0.53 2.58,0.53c1.13,0 2.01,-0.25 2.64,-0.76c0.63,-0.51 0.94,-1.18 0.94,-2c0,-0.35 -0.06,-0.67 -0.17,-0.95c-0.11,-0.29 -0.3,-0.54 -0.56,-0.76c-0.26,-0.22 -0.61,-0.41 -1.04,-0.57c-0.43,-0.16 -0.97,-0.28 -1.62,-0.36l-0.81,-0.12c-3.18,-0.43 -4.77,-1.92 -4.77,-4.49c0,-0.72 0.12,-1.37 0.37,-1.96c0.25,-0.59 0.6,-1.09 1.06,-1.5c0.46,-0.41 1.02,-0.73 1.67,-0.95c0.65,-0.22 1.38,-0.33 2.2,-0.33c0.95,0 1.87,0.14 2.73,0.42c0.87,0.28 1.6,0.64 2.21,1.09c0.13,0.1 0.14,0.21 0.05,0.33l-0.81,1.31c-0.1,0.11 -0.21,0.13 -0.33,0.05c-0.67,-0.41 -1.31,-0.72 -1.93,-0.92c-0.62,-0.2 -1.28,-0.3 -1.98,-0.3c-1,0 -1.77,0.24 -2.29,0.73c-0.53,0.49 -0.79,1.12 -0.79,1.9c0,0.68 0.25,1.25 0.76,1.68c0.51,0.44 1.39,0.74 2.65,0.92l0.79,0.12c1.59,0.22 2.78,0.7 3.58,1.43c0.8,0.73 1.19,1.77 1.19,3.1c0,0.72 -0.12,1.37 -0.37,1.97c-0.25,0.6 -0.62,1.11 -1.12,1.54s-1.12,0.77 -1.86,1.01c-0.74,0.25 -1.6,0.37 -2.57,0.37l-0.02,-0.03z" class="cls-1"/>
    <path id="svg_29" fill="#7d7150" d="m254.84,107.46c-0.57,0 -1.14,-0.06 -1.7,-0.17c-0.56,-0.11 -1.08,-0.26 -1.57,-0.44c-0.49,-0.18 -0.95,-0.4 -1.36,-0.64c-0.41,-0.25 -0.77,-0.5 -1.07,-0.78c-0.11,-0.11 -0.12,-0.23 -0.02,-0.36l1.05,-1.24c0.1,-0.11 0.21,-0.12 0.33,-0.02c0.53,0.41 1.18,0.8 1.96,1.15c0.78,0.35 1.64,0.53 2.58,0.53c1.13,0 2.01,-0.25 2.64,-0.76c0.63,-0.51 0.94,-1.18 0.94,-2c0,-0.35 -0.06,-0.67 -0.17,-0.95c-0.11,-0.29 -0.3,-0.54 -0.56,-0.76c-0.26,-0.22 -0.61,-0.41 -1.04,-0.57c-0.43,-0.16 -0.97,-0.28 -1.62,-0.36l-0.81,-0.12c-3.18,-0.43 -4.77,-1.92 -4.77,-4.49c0,-0.72 0.12,-1.37 0.37,-1.96c0.25,-0.59 0.6,-1.09 1.06,-1.5c0.46,-0.41 1.02,-0.73 1.67,-0.95c0.65,-0.22 1.38,-0.33 2.2,-0.33c0.95,0 1.87,0.14 2.73,0.42c0.87,0.28 1.6,0.64 2.21,1.09c0.13,0.1 0.14,0.21 0.05,0.33l-0.81,1.31c-0.1,0.11 -0.21,0.13 -0.33,0.05c-0.67,-0.41 -1.31,-0.72 -1.93,-0.92c-0.62,-0.2 -1.28,-0.3 -1.98,-0.3c-1,0 -1.77,0.24 -2.29,0.73c-0.53,0.49 -0.79,1.12 -0.79,1.9c0,0.68 0.25,1.25 0.76,1.68c0.51,0.44 1.39,0.74 2.65,0.92l0.79,0.12c1.59,0.22 2.78,0.7 3.58,1.43c0.8,0.73 1.19,1.77 1.19,3.1c0,0.72 -0.12,1.37 -0.37,1.97c-0.25,0.6 -0.62,1.11 -1.12,1.54s-1.12,0.77 -1.86,1.01c-0.74,0.25 -1.6,0.37 -2.57,0.37l-0.02,-0.03z" class="cls-1"/>
    <path id="svg_30" fill="#7d7150" d="m264.39,91.21c0,-0.16 0.08,-0.24 0.24,-0.24l1.67,0c0.16,0 0.24,0.08 0.24,0.24l0,15.75c0,0.16 -0.08,0.24 -0.24,0.24l-1.67,0c-0.16,0 -0.24,-0.08 -0.24,-0.24l0,-15.75z" class="cls-1"/>
    <path id="svg_31" fill="#7d7150" d="m276.25,107.46c-1.37,0 -2.53,-0.32 -3.47,-0.95c-0.95,-0.64 -1.63,-1.58 -2.04,-2.84c-0.08,-0.24 -0.15,-0.49 -0.2,-0.74c-0.06,-0.25 -0.1,-0.55 -0.13,-0.89c-0.03,-0.34 -0.06,-0.75 -0.07,-1.23c-0.02,-0.48 -0.02,-1.05 -0.02,-1.72s0,-1.24 0.02,-1.72c0.02,-0.48 0.04,-0.89 0.07,-1.23c0.03,-0.34 0.08,-0.64 0.13,-0.89c0.06,-0.25 0.12,-0.5 0.2,-0.74c0.41,-1.26 1.09,-2.2 2.04,-2.84c0.95,-0.64 2.1,-0.95 3.47,-0.95s2.55,0.32 3.5,0.95c0.95,0.64 1.63,1.58 2.04,2.84c0.08,0.24 0.15,0.49 0.2,0.74c0.06,0.25 0.1,0.55 0.13,0.89c0.03,0.34 0.06,0.75 0.07,1.23s0.02,1.05 0.02,1.72s0,1.24 -0.02,1.72c-0.02,0.48 -0.04,0.89 -0.07,1.23c-0.03,0.34 -0.08,0.64 -0.13,0.89c-0.06,0.25 -0.12,0.5 -0.2,0.74c-0.41,1.26 -1.09,2.2 -2.04,2.84c-0.95,0.64 -2.11,0.95 -3.5,0.95zm0,-1.98c0.91,0 1.65,-0.21 2.22,-0.62c0.57,-0.41 0.99,-1.01 1.24,-1.79c0.05,-0.14 0.09,-0.32 0.13,-0.54s0.08,-0.48 0.12,-0.8c0.04,-0.32 0.07,-0.69 0.08,-1.12s0.02,-0.94 0.02,-1.53s0,-1.1 -0.02,-1.53s-0.04,-0.8 -0.08,-1.12c-0.04,-0.32 -0.08,-0.58 -0.12,-0.8c-0.04,-0.21 -0.08,-0.39 -0.13,-0.54c-0.25,-0.78 -0.67,-1.38 -1.24,-1.79c-0.57,-0.41 -1.31,-0.62 -2.22,-0.62s-1.64,0.21 -2.21,0.62c-0.57,0.41 -0.98,1.01 -1.23,1.79c-0.05,0.14 -0.09,0.32 -0.13,0.54c-0.04,0.21 -0.08,0.48 -0.12,0.8c-0.04,0.32 -0.07,0.69 -0.08,1.12s-0.02,0.94 -0.02,1.53s0,1.1 0.02,1.53s0.04,0.8 0.08,1.12c0.04,0.32 0.08,0.58 0.12,0.8s0.08,0.39 0.13,0.54c0.25,0.78 0.66,1.38 1.23,1.79c0.56,0.41 1.3,0.62 2.21,0.62z" class="cls-1"/>
    <path id="svg_32" fill="#7d7150" d="m286.01,91.21c0,-0.16 0.08,-0.24 0.24,-0.24l1.53,0c0.19,0 0.33,0.08 0.41,0.24l7.35,12.17l0.1,0l0,-12.17c0,-0.16 0.08,-0.24 0.24,-0.24l1.52,0c0.16,0 0.24,0.08 0.24,0.24l0,15.75c0,0.16 -0.08,0.24 -0.24,0.24l-1.53,0c-0.19,0 -0.33,-0.08 -0.41,-0.24l-7.37,-12.12l-0.07,0l0,12.12c0,0.16 -0.08,0.24 -0.24,0.24l-1.52,0c-0.16,0 -0.24,-0.08 -0.24,-0.24l0,-15.75l-0.01,0z" class="cls-1"/>
    <path id="svg_33" fill="#7d7150" d="m308.06,91.21c0,-0.16 0.08,-0.24 0.24,-0.24l9.78,0c0.16,0 0.24,0.08 0.24,0.24l0,1.5c0,0.16 -0.08,0.24 -0.24,0.24l-7.73,0c-0.09,0 -0.14,0.05 -0.14,0.14l0,4.94c0,0.1 0.05,0.14 0.14,0.14l6.56,0c0.16,0 0.24,0.08 0.24,0.24l0,1.5c0,0.16 -0.08,0.24 -0.24,0.24l-6.56,0c-0.09,0 -0.14,0.05 -0.14,0.14l0,6.66c0,0.16 -0.08,0.24 -0.24,0.24l-1.67,0c-0.16,0 -0.24,-0.08 -0.24,-0.24l0,-15.75l0,0.01z" class="cls-1"/>
    <path id="svg_34" fill="#7d7150" d="m327.06,107.46c-1.37,0 -2.53,-0.32 -3.47,-0.95c-0.95,-0.64 -1.63,-1.58 -2.04,-2.84c-0.08,-0.24 -0.15,-0.49 -0.2,-0.74c-0.06,-0.25 -0.1,-0.55 -0.13,-0.89c-0.03,-0.34 -0.06,-0.75 -0.07,-1.23c-0.02,-0.48 -0.02,-1.05 -0.02,-1.72s0,-1.24 0.02,-1.72c0.02,-0.48 0.04,-0.89 0.07,-1.23c0.03,-0.34 0.08,-0.64 0.13,-0.89c0.06,-0.25 0.12,-0.5 0.2,-0.74c0.41,-1.26 1.09,-2.2 2.04,-2.84c0.95,-0.64 2.1,-0.95 3.47,-0.95s2.55,0.32 3.5,0.95c0.95,0.64 1.63,1.58 2.04,2.84c0.08,0.24 0.15,0.49 0.2,0.74c0.06,0.25 0.1,0.55 0.13,0.89c0.03,0.34 0.06,0.75 0.07,1.23s0.02,1.05 0.02,1.72s0,1.24 -0.02,1.72c-0.02,0.48 -0.04,0.89 -0.07,1.23c-0.03,0.34 -0.08,0.64 -0.13,0.89c-0.06,0.25 -0.12,0.5 -0.2,0.74c-0.41,1.26 -1.09,2.2 -2.04,2.84c-0.95,0.64 -2.11,0.95 -3.5,0.95zm0,-1.98c0.91,0 1.65,-0.21 2.22,-0.62c0.57,-0.41 0.99,-1.01 1.24,-1.79c0.05,-0.14 0.09,-0.32 0.13,-0.54s0.08,-0.48 0.12,-0.8c0.04,-0.32 0.07,-0.69 0.08,-1.12s0.02,-0.94 0.02,-1.53s0,-1.1 -0.02,-1.53s-0.04,-0.8 -0.08,-1.12c-0.04,-0.32 -0.08,-0.58 -0.12,-0.8c-0.04,-0.21 -0.08,-0.39 -0.13,-0.54c-0.25,-0.78 -0.67,-1.38 -1.24,-1.79c-0.57,-0.41 -1.31,-0.62 -2.22,-0.62s-1.64,0.21 -2.21,0.62c-0.57,0.41 -0.98,1.01 -1.23,1.79c-0.05,0.14 -0.09,0.32 -0.13,0.54c-0.04,0.21 -0.08,0.48 -0.12,0.8c-0.04,0.32 -0.07,0.69 -0.08,1.12s-0.02,0.94 -0.02,1.53s0,1.1 0.02,1.53s0.04,0.8 0.08,1.12c0.04,0.32 0.08,0.58 0.12,0.8s0.08,0.39 0.13,0.54c0.25,0.78 0.66,1.38 1.23,1.79c0.56,0.41 1.3,0.62 2.21,0.62z" class="cls-1"/>
    <path id="svg_35" fill="#7d7150" d="m346.23,107.2c-0.14,0 -0.25,-0.08 -0.31,-0.24l-3.23,-6.63l-3.57,0c-0.09,0 -0.14,0.05 -0.14,0.14l0,6.49c0,0.16 -0.08,0.24 -0.24,0.24l-1.67,0c-0.16,0 -0.24,-0.08 -0.24,-0.24l0,-15.75c0,-0.16 0.08,-0.24 0.24,-0.24l5.88,0c0.76,0 1.46,0.11 2.08,0.33c0.62,0.22 1.16,0.54 1.6,0.94c0.45,0.41 0.79,0.9 1.04,1.48c0.25,0.58 0.37,1.22 0.37,1.92c0,1.1 -0.29,2.03 -0.86,2.79c-0.57,0.76 -1.35,1.3 -2.34,1.62l3.46,6.85c0.05,0.08 0.06,0.15 0.02,0.2c-0.03,0.06 -0.09,0.08 -0.17,0.08l-1.93,0l0.01,0.02zm-3.34,-8.85c0.95,0 1.69,-0.23 2.21,-0.7c0.52,-0.47 0.78,-1.13 0.78,-1.99s-0.26,-1.52 -0.78,-1.99c-0.52,-0.47 -1.26,-0.7 -2.21,-0.7l-3.78,0c-0.09,0 -0.14,0.05 -0.14,0.14l0,5.11c0,0.1 0.05,0.14 0.14,0.14l3.78,0l0,-0.01z" class="cls-1"/>
    <path id="svg_36" fill="#7d7150" d="m24.38,116.17c0,-0.16 0.08,-0.24 0.24,-0.24l1.55,0c0.19,0 0.32,0.08 0.38,0.24l4.85,10.93l0.07,0l4.76,-10.93c0.06,-0.16 0.19,-0.24 0.38,-0.24l1.55,0c0.16,0 0.24,0.08 0.24,0.24l0,15.75c0,0.16 -0.08,0.24 -0.24,0.24l-1.52,0c-0.16,0 -0.24,-0.08 -0.24,-0.24l0,-11.29l-0.07,0l-4.02,8.93c-0.08,0.19 -0.22,0.29 -0.43,0.29l-0.95,0c-0.22,0 -0.37,-0.1 -0.45,-0.29l-4.02,-8.93l-0.07,0l0,11.29c0,0.16 -0.08,0.24 -0.24,0.24l-1.52,0c-0.16,0 -0.24,-0.08 -0.24,-0.24l0,-15.75l-0.01,0z" class="cls-1"/>
    <path id="svg_37" fill="#7d7150" d="m46.96,116.17c0.05,-0.16 0.14,-0.24 0.29,-0.24l1.55,0c0.16,0 0.26,0.08 0.31,0.24l5.56,15.75c0.05,0.16 0,0.24 -0.17,0.24l-1.67,0c-0.16,0 -0.26,-0.08 -0.31,-0.24l-1.24,-3.53l-6.56,0l-1.24,3.53c-0.06,0.16 -0.17,0.24 -0.31,0.24l-1.67,0c-0.16,0 -0.21,-0.08 -0.17,-0.24l5.63,-15.75zm3.63,10.24l-2.55,-7.35l-0.05,0l-2.58,7.35l5.18,0z" class="cls-1"/>
    <path id="svg_38" fill="#7d7150" d="m57.61,116.17c0,-0.16 0.08,-0.24 0.24,-0.24l1.67,0c0.16,0 0.24,0.08 0.24,0.24l0,8.45l6.9,-8.47c0.1,-0.14 0.22,-0.21 0.38,-0.21l1.96,0c0.08,0 0.13,0.03 0.16,0.08c0.02,0.06 0,0.12 -0.06,0.2l-5.06,6.09l5.56,9.59c0.11,0.18 0.06,0.26 -0.14,0.26l-1.91,0c-0.14,0 -0.25,-0.07 -0.33,-0.21l-4.56,-8l-2.89,3.48l0,4.49c0,0.16 -0.08,0.24 -0.24,0.24l-1.67,0c-0.16,0 -0.24,-0.08 -0.24,-0.24l0,-15.75l-0.01,0z" class="cls-1"/>
    <path id="svg_39" fill="#7d7150" d="m72.67,116.17c0,-0.16 0.08,-0.24 0.24,-0.24l1.67,0c0.16,0 0.24,0.08 0.24,0.24l0,8.45l6.9,-8.47c0.1,-0.14 0.22,-0.21 0.38,-0.21l1.96,0c0.08,0 0.13,0.03 0.16,0.08c0.02,0.06 0,0.12 -0.06,0.2l-5.06,6.09l5.56,9.59c0.11,0.18 0.06,0.26 -0.14,0.26l-1.91,0c-0.14,0 -0.25,-0.07 -0.33,-0.21l-4.56,-8l-2.89,3.48l0,4.49c0,0.16 -0.08,0.24 -0.24,0.24l-1.67,0c-0.16,0 -0.24,-0.08 -0.24,-0.24l0,-15.75l-0.01,0z" class="cls-1"/>
    <path id="svg_40" fill="#7d7150" d="m91.93,116.17c0.05,-0.16 0.14,-0.24 0.29,-0.24l1.55,0c0.16,0 0.26,0.08 0.31,0.24l5.56,15.75c0.05,0.16 0,0.24 -0.17,0.24l-1.67,0c-0.16,0 -0.26,-0.08 -0.31,-0.24l-1.24,-3.53l-6.56,0l-1.24,3.53c-0.06,0.16 -0.17,0.24 -0.31,0.24l-1.67,0c-0.16,0 -0.21,-0.08 -0.17,-0.24l5.63,-15.75zm3.62,10.24l-2.55,-7.35l-0.05,0l-2.58,7.35l5.18,0z" class="cls-1"/>
    <path id="svg_41" fill="#7d7150" d="m102.57,116.17c0,-0.16 0.08,-0.24 0.24,-0.24l1.67,0c0.16,0 0.24,0.08 0.24,0.24l0,6.66c0,0.1 0.05,0.14 0.14,0.14l7.02,0c0.09,0 0.14,-0.05 0.14,-0.14l0,-6.66c0,-0.16 0.08,-0.24 0.24,-0.24l1.67,0c0.16,0 0.24,0.08 0.24,0.24l0,15.75c0,0.16 -0.08,0.24 -0.24,0.24l-1.67,0c-0.16,0 -0.24,-0.08 -0.24,-0.24l0,-6.83c0,-0.1 -0.05,-0.14 -0.14,-0.14l-7.02,0c-0.09,0 -0.14,0.05 -0.14,0.14l0,6.83c0,0.16 -0.08,0.24 -0.24,0.24l-1.67,0c-0.16,0 -0.24,-0.08 -0.24,-0.24l0,-15.75z" class="cls-1"/>
    <path id="svg_42" fill="#7d7150" d="m124.46,128.6c-0.08,-0.24 -0.15,-0.48 -0.2,-0.73c-0.06,-0.25 -0.1,-0.54 -0.13,-0.88c-0.03,-0.34 -0.06,-0.75 -0.07,-1.23c-0.02,-0.48 -0.02,-1.05 -0.02,-1.72s0,-1.24 0.02,-1.72c0.02,-0.48 0.04,-0.89 0.07,-1.23c0.03,-0.34 0.08,-0.64 0.13,-0.88c0.06,-0.25 0.12,-0.49 0.2,-0.73c0.41,-1.29 1.08,-2.25 2,-2.88c0.92,-0.63 2.05,-0.94 3.39,-0.94c1.21,0 2.26,0.28 3.16,0.85c0.9,0.57 1.58,1.37 2.04,2.42c0.05,0.14 0.02,0.25 -0.1,0.31l-1.43,0.69c-0.16,0.08 -0.27,0.04 -0.33,-0.12c-0.32,-0.64 -0.74,-1.16 -1.26,-1.56c-0.53,-0.41 -1.22,-0.61 -2.08,-0.61s-1.61,0.21 -2.15,0.62c-0.54,0.41 -0.95,1 -1.22,1.77c-0.05,0.18 -0.09,0.36 -0.13,0.56c-0.04,0.2 -0.07,0.45 -0.1,0.74c-0.02,0.29 -0.04,0.66 -0.06,1.1c-0.02,0.44 -0.02,0.97 -0.02,1.61s0,1.17 0.02,1.61c0.02,0.44 0.04,0.8 0.06,1.1c0.02,0.29 0.06,0.55 0.1,0.75c0.04,0.21 0.08,0.39 0.13,0.55c0.27,0.76 0.68,1.35 1.22,1.77c0.54,0.41 1.26,0.62 2.15,0.62s1.55,-0.2 2.08,-0.61c0.53,-0.41 0.95,-0.93 1.26,-1.56c0.06,-0.16 0.18,-0.2 0.33,-0.12l1.43,0.69c0.11,0.06 0.14,0.17 0.1,0.31c-0.46,1.05 -1.14,1.86 -2.04,2.42c-0.9,0.57 -1.95,0.85 -3.16,0.85c-1.34,0 -2.47,-0.31 -3.39,-0.94c-0.92,-0.63 -1.59,-1.59 -2,-2.88z" class="cls-1"/>
    <path id="svg_43" fill="#7d7150" d="m138.47,116.17c0,-0.16 0.08,-0.24 0.24,-0.24l1.67,0c0.16,0 0.24,0.08 0.24,0.24l0,15.75c0,0.16 -0.08,0.24 -0.24,0.24l-1.67,0c-0.16,0 -0.24,-0.08 -0.24,-0.24l0,-15.75z" class="cls-1"/>
    <path id="svg_44" fill="#7d7150" d="m148.54,132.16c-0.16,0 -0.24,-0.08 -0.24,-0.24l0,-13.87c0,-0.1 -0.05,-0.14 -0.14,-0.14l-4.44,0c-0.16,0 -0.24,-0.08 -0.24,-0.24l0,-1.5c0,-0.16 0.08,-0.24 0.24,-0.24l11.31,0c0.16,0 0.24,0.08 0.24,0.24l0,1.5c0,0.16 -0.08,0.24 -0.24,0.24l-4.44,0c-0.1,0 -0.14,0.05 -0.14,0.14l0,13.87c0,0.16 -0.08,0.24 -0.24,0.24l-1.67,0z" class="cls-1"/>
    <path id="svg_45" fill="#7d7150" d="m161.59,132.16c-0.16,0 -0.24,-0.08 -0.24,-0.24l0,-6.4l-4.8,-9.33c-0.06,-0.17 0,-0.26 0.19,-0.26l1.69,0c0.14,0 0.26,0.08 0.36,0.24l3.63,6.95l0.05,0l3.6,-6.95c0.06,-0.16 0.17,-0.24 0.33,-0.24l1.65,0c0.19,0 0.25,0.09 0.19,0.26l-4.8,9.33l0,6.4c0,0.16 -0.08,0.24 -0.24,0.24l-1.62,0l0.01,0z" class="cls-1"/>
    <path id="svg_46" fill="#7d7150" d="m180.9,116.17c0.05,-0.16 0.14,-0.24 0.29,-0.24l1.55,0c0.16,0 0.26,0.08 0.31,0.24l5.56,15.75c0.05,0.16 0,0.24 -0.17,0.24l-1.67,0c-0.16,0 -0.26,-0.08 -0.31,-0.24l-1.24,-3.53l-6.56,0l-1.24,3.53c-0.06,0.16 -0.17,0.24 -0.31,0.24l-1.67,0c-0.16,0 -0.21,-0.08 -0.17,-0.24l5.63,-15.75zm3.63,10.24l-2.55,-7.35l-0.05,0l-2.58,7.35l5.18,0z" class="cls-1"/>
    <path id="svg_47" fill="#7d7150" d="m191.55,116.17c0,-0.16 0.08,-0.24 0.24,-0.24l1.53,0c0.19,0 0.33,0.08 0.41,0.24l7.35,12.17l0.1,0l0,-12.17c0,-0.16 0.08,-0.24 0.24,-0.24l1.52,0c0.16,0 0.24,0.08 0.24,0.24l0,15.75c0,0.16 -0.08,0.24 -0.24,0.24l-1.53,0c-0.19,0 -0.33,-0.08 -0.41,-0.24l-7.37,-12.12l-0.07,0l0,12.12c0,0.16 -0.08,0.24 -0.24,0.24l-1.52,0c-0.16,0 -0.24,-0.08 -0.24,-0.24l0,-15.75l-0.01,0z" class="cls-1"/>
    <path id="svg_48" fill="#7d7150" d="m207.51,116.17c0,-0.16 0.08,-0.24 0.24,-0.24l5.47,0c2.78,0 4.55,1.15 5.3,3.46c0.06,0.22 0.12,0.45 0.18,0.69s0.1,0.53 0.14,0.88c0.04,0.35 0.07,0.77 0.08,1.26c0.02,0.49 0.02,1.1 0.02,1.81s0,1.32 -0.02,1.81c-0.02,0.49 -0.04,0.92 -0.08,1.26c-0.04,0.35 -0.09,0.64 -0.14,0.88s-0.12,0.47 -0.18,0.69c-0.75,2.31 -2.51,3.46 -5.3,3.46l-5.47,0c-0.16,0 -0.24,-0.08 -0.24,-0.24l0,-15.75l0,0.03zm2.15,13.86c0,0.1 0.05,0.14 0.14,0.14l2.97,0c0.98,0 1.78,-0.17 2.38,-0.51c0.6,-0.34 1.04,-0.91 1.31,-1.71c0.05,-0.14 0.09,-0.31 0.14,-0.5s0.08,-0.43 0.11,-0.73c0.02,-0.29 0.04,-0.66 0.06,-1.09c0.02,-0.43 0.02,-0.96 0.02,-1.6s0,-1.17 -0.02,-1.6c-0.02,-0.43 -0.04,-0.79 -0.06,-1.09c-0.02,-0.29 -0.06,-0.54 -0.11,-0.73s-0.1,-0.36 -0.14,-0.5c-0.27,-0.8 -0.71,-1.36 -1.31,-1.71c-0.6,-0.34 -1.4,-0.51 -2.38,-0.51l-2.97,0c-0.09,0 -0.14,0.05 -0.14,0.14l0,11.98l0,0.02z" class="cls-1"/>
    <path id="svg_49" fill="#7d7150" d="m228.82,116.17c0,-0.16 0.08,-0.24 0.24,-0.24l1.67,0c0.16,0 0.24,0.08 0.24,0.24l0,6.66c0,0.1 0.05,0.14 0.14,0.14l7.02,0c0.09,0 0.14,-0.05 0.14,-0.14l0,-6.66c0,-0.16 0.08,-0.24 0.24,-0.24l1.67,0c0.16,0 0.24,0.08 0.24,0.24l0,15.75c0,0.16 -0.08,0.24 -0.24,0.24l-1.67,0c-0.16,0 -0.24,-0.08 -0.24,-0.24l0,-6.83c0,-0.1 -0.05,-0.14 -0.14,-0.14l-7.02,0c-0.09,0 -0.14,0.05 -0.14,0.14l0,6.83c0,0.16 -0.08,0.24 -0.24,0.24l-1.67,0c-0.16,0 -0.24,-0.08 -0.24,-0.24l0,-15.75z" class="cls-1"/>
    <path id="svg_50" fill="#7d7150" d="m250.14,132.42c-1.37,0 -2.53,-0.32 -3.47,-0.95c-0.95,-0.64 -1.63,-1.58 -2.04,-2.84c-0.08,-0.24 -0.15,-0.49 -0.2,-0.74c-0.06,-0.25 -0.1,-0.55 -0.13,-0.89c-0.03,-0.34 -0.06,-0.75 -0.07,-1.23c-0.02,-0.48 -0.02,-1.05 -0.02,-1.72s0,-1.24 0.02,-1.72c0.02,-0.48 0.04,-0.89 0.07,-1.23c0.03,-0.34 0.08,-0.64 0.13,-0.89c0.06,-0.25 0.12,-0.5 0.2,-0.74c0.41,-1.26 1.09,-2.2 2.04,-2.84c0.95,-0.64 2.1,-0.95 3.47,-0.95s2.55,0.32 3.5,0.95c0.95,0.64 1.63,1.58 2.04,2.84c0.08,0.24 0.15,0.49 0.2,0.74c0.06,0.25 0.1,0.55 0.13,0.89c0.03,0.34 0.06,0.75 0.07,1.23s0.02,1.05 0.02,1.72s0,1.24 -0.02,1.72c-0.02,0.48 -0.04,0.89 -0.07,1.23c-0.03,0.34 -0.08,0.64 -0.13,0.89c-0.06,0.25 -0.12,0.5 -0.2,0.74c-0.41,1.26 -1.09,2.2 -2.04,2.84c-0.95,0.64 -2.11,0.95 -3.5,0.95zm0,-1.98c0.91,0 1.65,-0.21 2.22,-0.62c0.57,-0.41 0.99,-1.01 1.24,-1.79c0.05,-0.14 0.09,-0.32 0.13,-0.54s0.08,-0.48 0.12,-0.8c0.04,-0.32 0.07,-0.69 0.08,-1.12s0.02,-0.94 0.02,-1.53s0,-1.1 -0.02,-1.53s-0.04,-0.8 -0.08,-1.12c-0.04,-0.32 -0.08,-0.58 -0.12,-0.8c-0.04,-0.21 -0.08,-0.39 -0.13,-0.54c-0.25,-0.78 -0.67,-1.38 -1.24,-1.79c-0.57,-0.41 -1.31,-0.62 -2.22,-0.62s-1.64,0.21 -2.21,0.62c-0.57,0.41 -0.98,1.01 -1.23,1.79c-0.05,0.14 -0.09,0.32 -0.13,0.54c-0.04,0.21 -0.08,0.48 -0.12,0.8c-0.04,0.32 -0.07,0.69 -0.08,1.12s-0.02,0.94 -0.02,1.53s0,1.1 0.02,1.53s0.04,0.8 0.08,1.12c0.04,0.32 0.08,0.58 0.12,0.8s0.08,0.39 0.13,0.54c0.25,0.78 0.66,1.38 1.23,1.79c0.56,0.41 1.3,0.62 2.21,0.62z" class="cls-1"/>
    <path id="svg_51" fill="#7d7150" d="m259.9,116.17c0,-0.16 0.08,-0.24 0.24,-0.24l1.67,0c0.16,0 0.24,0.08 0.24,0.24l0,13.87c0,0.1 0.05,0.14 0.14,0.14l7.73,0c0.16,0 0.24,0.08 0.24,0.24l0,1.5c0,0.16 -0.08,0.24 -0.24,0.24l-9.78,0c-0.16,0 -0.24,-0.08 -0.24,-0.24l0,-15.75z" class="cls-1"/>
    <path id="svg_52" fill="#7d7150" d="m274.41,132.16c-0.16,0 -0.24,-0.08 -0.24,-0.24l0,-6.4l-4.8,-9.33c-0.06,-0.17 0,-0.26 0.19,-0.26l1.69,0c0.14,0 0.26,0.08 0.36,0.24l3.63,6.95l0.05,0l3.6,-6.95c0.06,-0.16 0.17,-0.24 0.33,-0.24l1.65,0c0.19,0 0.25,0.09 0.19,0.26l-4.8,9.33l0,6.4c0,0.16 -0.08,0.24 -0.24,0.24l-1.62,0l0.01,0z" class="cls-1"/>
    <path id="svg_53" fill="#7d7150" d="m294.43,132.42c-0.57,0 -1.14,-0.06 -1.7,-0.17c-0.56,-0.11 -1.08,-0.26 -1.57,-0.44c-0.49,-0.18 -0.95,-0.4 -1.36,-0.64c-0.41,-0.25 -0.77,-0.5 -1.07,-0.78c-0.11,-0.11 -0.12,-0.23 -0.02,-0.36l1.05,-1.24c0.1,-0.11 0.21,-0.12 0.33,-0.02c0.53,0.41 1.18,0.8 1.96,1.15c0.78,0.35 1.64,0.53 2.58,0.53c1.13,0 2.01,-0.25 2.64,-0.76c0.63,-0.51 0.94,-1.18 0.94,-2c0,-0.35 -0.06,-0.67 -0.17,-0.95c-0.11,-0.29 -0.3,-0.54 -0.56,-0.76c-0.26,-0.22 -0.61,-0.41 -1.04,-0.57c-0.43,-0.16 -0.97,-0.28 -1.62,-0.36l-0.81,-0.12c-3.18,-0.43 -4.77,-1.92 -4.77,-4.49c0,-0.72 0.12,-1.37 0.37,-1.96c0.25,-0.59 0.6,-1.09 1.06,-1.5c0.46,-0.41 1.02,-0.73 1.67,-0.95c0.65,-0.22 1.38,-0.33 2.2,-0.33c0.95,0 1.87,0.14 2.73,0.42c0.87,0.28 1.6,0.64 2.21,1.09c0.13,0.1 0.14,0.21 0.05,0.33l-0.81,1.31c-0.1,0.11 -0.21,0.13 -0.33,0.05c-0.67,-0.41 -1.31,-0.72 -1.93,-0.92c-0.62,-0.2 -1.28,-0.3 -1.98,-0.3c-1,0 -1.77,0.24 -2.29,0.73c-0.53,0.49 -0.79,1.12 -0.79,1.9c0,0.68 0.25,1.25 0.76,1.68c0.51,0.44 1.39,0.74 2.65,0.92l0.79,0.12c1.59,0.22 2.78,0.7 3.58,1.43c0.8,0.73 1.19,1.77 1.19,3.1c0,0.72 -0.12,1.37 -0.37,1.97c-0.25,0.6 -0.62,1.11 -1.12,1.54s-1.12,0.77 -1.86,1.01c-0.74,0.25 -1.6,0.37 -2.57,0.37l-0.02,-0.03z" class="cls-1"/>
    <path id="svg_54" fill="#7d7150" d="m303.98,116.17c0,-0.16 0.08,-0.24 0.24,-0.24l1.67,0c0.16,0 0.24,0.08 0.24,0.24l0,15.75c0,0.16 -0.08,0.24 -0.24,0.24l-1.67,0c-0.16,0 -0.24,-0.08 -0.24,-0.24l0,-15.75z" class="cls-1"/>
    <path id="svg_55" fill="#7d7150" d="m314.05,132.16c-0.16,0 -0.24,-0.08 -0.24,-0.24l0,-13.87c0,-0.1 -0.05,-0.14 -0.14,-0.14l-4.44,0c-0.16,0 -0.24,-0.08 -0.24,-0.24l0,-1.5c0,-0.16 0.08,-0.24 0.24,-0.24l11.31,0c0.16,0 0.24,0.08 0.24,0.24l0,1.5c0,0.16 -0.08,0.24 -0.24,0.24l-4.44,0c-0.1,0 -0.14,0.05 -0.14,0.14l0,13.87c0,0.16 -0.08,0.24 -0.24,0.24l-1.67,0z" class="cls-1"/>
    <path id="svg_56" fill="#7d7150" d="m323.65,116.17c0,-0.16 0.08,-0.24 0.24,-0.24l9.78,0c0.16,0 0.24,0.08 0.24,0.24l0,1.5c0,0.16 -0.08,0.24 -0.24,0.24l-7.73,0c-0.09,0 -0.14,0.05 -0.14,0.14l0,4.77c0,0.1 0.05,0.14 0.14,0.14l6.56,0c0.16,0 0.24,0.08 0.24,0.24l0,1.5c0,0.16 -0.08,0.24 -0.24,0.24l-6.56,0c-0.09,0 -0.14,0.05 -0.14,0.14l0,4.94c0,0.1 0.05,0.14 0.14,0.14l7.73,0c0.16,0 0.24,0.08 0.24,0.24l0,1.5c0,0.16 -0.08,0.24 -0.24,0.24l-9.78,0c-0.16,0 -0.24,-0.08 -0.24,-0.24l0,-15.75l0,0.02z" class="cls-1"/>
    <path id="svg_57" fill="#7d7150" d="m342.36,132.42c-0.57,0 -1.14,-0.06 -1.7,-0.17c-0.56,-0.11 -1.08,-0.26 -1.57,-0.44c-0.49,-0.18 -0.95,-0.4 -1.36,-0.64c-0.41,-0.25 -0.77,-0.5 -1.07,-0.78c-0.11,-0.11 -0.12,-0.23 -0.02,-0.36l1.05,-1.24c0.1,-0.11 0.21,-0.12 0.33,-0.02c0.53,0.41 1.18,0.8 1.96,1.15c0.78,0.35 1.64,0.53 2.58,0.53c1.13,0 2.01,-0.25 2.64,-0.76c0.63,-0.51 0.94,-1.18 0.94,-2c0,-0.35 -0.06,-0.67 -0.17,-0.95c-0.11,-0.29 -0.3,-0.54 -0.56,-0.76c-0.26,-0.22 -0.61,-0.41 -1.04,-0.57c-0.43,-0.16 -0.97,-0.28 -1.62,-0.36l-0.81,-0.12c-3.18,-0.43 -4.77,-1.92 -4.77,-4.49c0,-0.72 0.12,-1.37 0.37,-1.96c0.25,-0.59 0.6,-1.09 1.06,-1.5c0.46,-0.41 1.02,-0.73 1.67,-0.95c0.65,-0.22 1.38,-0.33 2.2,-0.33c0.95,0 1.87,0.14 2.73,0.42c0.87,0.28 1.6,0.64 2.21,1.09c0.13,0.1 0.14,0.21 0.05,0.33l-0.81,1.31c-0.1,0.11 -0.21,0.13 -0.33,0.05c-0.67,-0.41 -1.31,-0.72 -1.93,-0.92c-0.62,-0.2 -1.28,-0.3 -1.98,-0.3c-1,0 -1.77,0.24 -2.29,0.73c-0.53,0.49 -0.79,1.12 -0.79,1.9c0,0.68 0.25,1.25 0.76,1.68c0.51,0.44 1.39,0.74 2.65,0.92l0.79,0.12c1.59,0.22 2.78,0.7 3.58,1.43c0.8,0.73 1.19,1.77 1.19,3.1c0,0.72 -0.12,1.37 -0.37,1.97c-0.25,0.6 -0.62,1.11 -1.12,1.54s-1.12,0.77 -1.86,1.01c-0.74,0.25 -1.6,0.37 -2.57,0.37l-0.02,-0.03z" class="cls-1"/>
   </g>
   <g id="svg_58">
    <path id="svg_59" d="m33.6,22.7c-0.99,0 -1.8,0.83 -1.8,1.8s0.78,1.8 1.8,1.8s1.79,-0.83 1.79,-1.8s-0.83,-1.8 -1.79,-1.8m-4.42,0c-0.99,0 -1.79,0.83 -1.79,1.8s0.74,1.8 1.79,1.8s1.79,-0.8 1.79,-1.8s-0.79,-1.8 -1.79,-1.8"/>
    <path id="svg_60" d="m68.81,27.81c-4.78,0 -7.18,3.2 -7.18,6.7c0,1.95 0.52,3.18 1.53,3.94c-0.13,-0.03 -0.68,-0.19 -1.53,-0.19l-4.5,0c-0.27,-5.3 -2.62,-8.06 -6.1,-9.63l6.73,-4.06l0,-3.62l-10.93,6.85l0,2.68c4.4,1.02 6.6,3.5 6.74,7.78l-16.04,0l0,-9.5s-2.51,-0.96 -5.8,-0.96c-5.06,0 -7.29,3.31 -7.29,6.92c0,3.92 2.02,6.41 7.37,6.41l43.24,0l0,-6.99c0,-3.87 -1.93,-6.35 -6.24,-6.35m-34.82,10.48l-1.76,0c-2.9,0 -4.14,-1.36 -4.14,-3.87c0,-2.15 1.21,-3.72 3.28,-3.72c1.58,0 2.62,0.49 2.62,0.49l0,7.1zm37.5,0l-2.1,0c-2.87,0 -4.13,-1.27 -4.13,-3.87c0,-2.15 1.21,-3.72 3.28,-3.72c1.85,0 2.95,1.16 2.95,3.92l0,3.67z"/>
    <path id="svg_61" d="m93.41,22.7c-0.99,0 -1.8,0.83 -1.8,1.8s0.77,1.8 1.8,1.8s1.79,-0.83 1.79,-1.8s-0.83,-1.8 -1.79,-1.8m-4.42,0c-0.99,0 -1.8,0.83 -1.8,1.8s0.75,1.8 1.8,1.8s1.8,-0.8 1.8,-1.8s-0.81,-1.8 -1.8,-1.8"/>
    <path id="svg_62" d="m111.35,22.68c-1.01,0 -1.9,0.88 -1.9,1.9s0.85,1.91 1.9,1.91s1.91,-0.85 1.91,-1.91s-0.88,-1.9 -1.91,-1.9"/>
    <path id="svg_63" d="m122.81,43.16c-0.99,0 -1.8,0.79 -1.8,1.79s0.77,1.8 1.8,1.8s1.79,-0.83 1.79,-1.8s-0.83,-1.79 -1.79,-1.79m-4.42,0c-0.99,0 -1.8,0.79 -1.8,1.79s0.78,1.8 1.8,1.8s1.79,-0.83 1.79,-1.8s-0.83,-1.79 -1.79,-1.79"/>
    <path id="svg_64" d="m118.86,28.16l0,10.11l-5.68,0l0,-10.11l-3.65,0l0,10.11l-12.2,0l0,-9.5s-2.51,-0.96 -5.8,-0.96c-5.06,0 -7.29,3.31 -7.29,6.92c0,3.92 2.02,6.41 7.37,6.41l30.9,0l0,-12.98l-3.65,0zm-25.07,10.11l-1.76,0c-2.9,0 -4.14,-1.36 -4.14,-3.87c0,-2.15 1.21,-3.72 3.28,-3.72c1.58,0 2.62,0.49 2.62,0.49l0,7.1z"/>
    <path id="svg_65" d="m161.75,21.67l0,16.6l-6.56,0l0,-4.11c0,-3.87 -1.93,-6.35 -6.24,-6.35c-4.78,0 -7.18,3.2 -7.18,6.7c0,2.84 -1.07,3.76 -2.73,3.76l-1.32,0c-0.33,-6.16 -3.5,-9.28 -9.19,-10.77l-0.88,3.04c4.35,1.1 6.35,3.64 6.51,7.72l-8.18,0l0,2.88l13.44,0c2.32,0 3.43,-0.86 3.92,-2.13c0.97,1.27 2.22,2.13 6.18,2.13l15.87,0l0,-19.47l-3.65,0l0.01,0zm-10.12,16.6l-2.1,0c-2.87,0 -4.13,-1.27 -4.13,-3.87c0,-2.15 1.21,-3.72 3.29,-3.72c1.85,0 2.95,1.16 2.95,3.92l0,3.67l-0.01,0z"/>
    <path id="svg_66" d="m184.2,22.7c-0.99,0 -1.79,0.83 -1.79,1.8s0.77,1.8 1.79,1.8s1.8,-0.83 1.8,-1.8s-0.83,-1.8 -1.8,-1.8m-4.42,0c-0.99,0 -1.78,0.83 -1.78,1.8s0.74,1.8 1.78,1.8s1.8,-0.8 1.8,-1.8s-0.79,-1.8 -1.8,-1.8"/>
    <path id="svg_67" d="m199.25,43.16c-1,0 -1.8,0.79 -1.8,1.79s0.77,1.8 1.8,1.8s1.79,-0.83 1.79,-1.8s-0.83,-1.79 -1.79,-1.79m4.42,0c-1,0 -1.79,0.79 -1.79,1.79s0.77,1.8 1.79,1.8s1.79,-0.83 1.79,-1.8s-0.83,-1.79 -1.79,-1.79"/>
    <path id="svg_68" d="m250.47,21.67l0,16.6l-5.81,0l0,-4.11c0,-3.87 -1.93,-6.35 -6.24,-6.35c-4.77,0 -7.17,3.2 -7.17,6.7c0,2.84 -1.08,3.76 -2.73,3.76l-2.62,0l0,-16.6l-3.65,0l0,16.6l-4.5,0c-0.28,-5.3 -2.62,-8.06 -6.11,-9.63l6.73,-4.06l0,-3.62l-10.93,6.85l0,2.68c4.4,1.02 6.6,3.5 6.74,7.78l-10.87,0l0,-10.11l-3.65,0l0,10.11l-11.54,0l0,-9.5s-2.51,-0.96 -5.8,-0.96c-5.06,0 -7.29,3.31 -7.29,6.92c0,3.92 2.02,6.41 7.38,6.41l46.48,0c2.31,0 3.42,-0.86 3.92,-2.13c0.96,1.27 2.2,2.13 6.18,2.13l15.11,0l0,-19.47l-3.65,0l0.02,0zm-65.88,16.6l-1.76,0c-2.9,0 -4.14,-1.36 -4.14,-3.87c0,-2.15 1.21,-3.72 3.28,-3.72c1.58,0 2.62,0.49 2.62,0.49l0,7.1zm56.5,0l-2.09,0c-2.88,0 -4.14,-1.27 -4.14,-3.87c0,-2.15 1.21,-3.72 3.28,-3.72c1.85,0 2.95,1.16 2.95,3.92l0,3.67z"/>
    <rect id="svg_69" height="19.46" width="3.65" y="21.68" x="258.52"/>
    <path id="svg_70" d="m280.24,22.7c-0.99,0 -1.8,0.83 -1.8,1.8s0.77,1.8 1.8,1.8s1.8,-0.83 1.8,-1.8s-0.84,-1.8 -1.8,-1.8m-4.41,0c-0.99,0 -1.8,0.83 -1.8,1.8s0.75,1.8 1.8,1.8s1.79,-0.8 1.79,-1.8s-0.8,-1.8 -1.79,-1.8"/>
    <path id="svg_71" d="m298.99,24.88c-1.54,0 -2,-0.39 -2,-1.02c0,-0.52 0.42,-0.94 1.36,-0.94c0.72,0 1.35,0.14 1.5,0.16l0.35,-1.93c-0.19,-0.03 -0.88,-0.16 -1.63,-0.16c-2.9,0 -4.05,1.49 -4.05,2.84c0,0.49 0.28,0.99 0.69,1.21c-0.39,-0.09 -1.06,-0.17 -1.66,-0.17l0,1.98l7.13,0l0,-1.98l-1.69,0l0,0.01z"/>
    <path id="svg_72" d="m309.79,43.16c-0.99,0 -1.79,0.79 -1.79,1.79s0.77,1.8 1.79,1.8s1.8,-0.83 1.8,-1.8s-0.83,-1.79 -1.8,-1.79m-4.41,0c-0.99,0 -1.8,0.79 -1.8,1.79s0.77,1.8 1.8,1.8s1.8,-0.83 1.8,-1.8s-0.83,-1.79 -1.8,-1.79"/>
    <path id="svg_73" d="m336.64,21.67l0,16.6l-5.17,0l0,-0.08c0,-8.07 -3.92,-11.35 -10.82,-11.35c-2.22,0 -4.73,0.44 -6.71,1.08l0.35,2.84c1.74,-0.58 4.01,-1.08 5.91,-1.08c5.46,0 7.79,2.54 7.79,8.25l0,0.33l-2.76,0l0,-0.64c0,-3.12 -1.38,-5.82 -5.08,-5.82c-3.34,0 -5.3,1.96 -5.3,4.64c0,1.16 0.55,1.81 0.67,1.95c-0.11,-0.02 -0.6,-0.13 -1.25,-0.13l-4.84,0l0,-10.11l-3.64,0l0,10.11l-6.45,0l0,-10.11l-3.64,0l0,10.11l-11.54,0l0,-9.5s-2.51,-0.96 -5.81,-0.96c-5.04,0 -7.28,3.31 -7.28,6.92c0,3.92 2.02,6.41 7.37,6.41l61.83,0l0,-19.47l-3.64,0l0.01,0.01zm-56.01,16.6l-1.76,0c-2.91,0 -4.14,-1.36 -4.14,-3.87c0,-2.15 1.21,-3.73 3.28,-3.73c1.58,0 2.62,0.5 2.62,0.5l0,7.1zm41.62,0.11l-1.82,0c-1.41,0 -2.63,-0.63 -2.63,-2.18c0,-1.16 0.81,-1.87 2.07,-1.87c1.63,0 2.38,1.13 2.38,3.26l0,0.79z"/>
    <rect id="svg_74" height="19.46" width="3.64" y="21.68" x="344.7"/>
    <path id="svg_75" d="m33.61,53.01c-0.99,0 -1.8,0.83 -1.8,1.79s0.78,1.8 1.8,1.8s1.8,-0.83 1.8,-1.8s-0.83,-1.79 -1.8,-1.79m-4.42,0c-0.99,0 -1.79,0.83 -1.79,1.79s0.74,1.8 1.79,1.8s1.8,-0.79 1.8,-1.8s-0.79,-1.79 -1.8,-1.79"/>
    <path id="svg_76" d="m61.57,57.37l-3.56,0.5c0.47,2.1 0.81,4.64 0.81,7.4c0,0.86 -0.06,2.2 -0.17,3.32l-0.75,0c-2.55,0 -3.28,-0.44 -3.28,-2.62l0,-6.93l-3.5,0l0,6.24c0,2.68 -0.81,3.54 -2.24,3.54c-1.63,0 -1.91,-1.08 -1.91,-3.57l0,-5.1l-3.65,0l0,5.03c0,2.7 -0.69,3.43 -2.48,3.43l-3.31,0l0,-9.5s-2.51,-0.97 -5.8,-0.97c-5.06,0 -7.29,3.32 -7.29,6.93c0,3.92 2.02,6.4 7.37,6.4l9,0c2.02,0 3.12,-0.66 3.67,-1.93c0.44,1.32 1.91,2.15 3.7,2.15c2.16,0 3.62,-0.94 4.17,-2.13c0.8,1.52 2.27,1.91 5.17,1.91l4.55,0c0.25,-1.96 0.39,-4.42 0.39,-6.44c0,-2.73 -0.35,-5.43 -0.88,-7.65m-27.59,11.2l-1.76,0c-2.9,0 -4.14,-1.36 -4.14,-3.87c0,-2.16 1.21,-3.73 3.28,-3.73c1.58,0 2.62,0.5 2.62,0.5l0,7.1z"/>
    <path id="svg_77" d="m87.29,53.01c-0.99,0 -1.8,0.83 -1.8,1.79s0.75,1.8 1.8,1.8s1.79,-0.79 1.79,-1.8s-0.8,-1.79 -1.79,-1.79m4.42,0c-0.99,0 -1.79,0.83 -1.79,1.79s0.77,1.8 1.79,1.8s1.8,-0.83 1.8,-1.8s-0.84,-1.79 -1.8,-1.79"/>
    <path id="svg_78" d="m119.41,51.99l0,16.59l-5.61,0l0,-4.12c0,-3.86 -1.93,-6.35 -6.24,-6.35c-4.78,0 -7.19,3.21 -7.19,6.71c0,2.84 -1.07,3.76 -2.73,3.76l-0.96,0c-0.97,0 -2.13,0.13 -2.13,0.13c1.05,-0.88 1.6,-2.57 1.6,-4.17c0,-4.4 -2.51,-6.44 -6.4,-6.44c-4.2,0 -7.04,2.9 -7.04,6.88c0,1.58 0.44,2.86 1.3,3.73c0,0 -0.86,-0.13 -1.72,-0.13l-4.3,0c-0.33,-6.16 -3.5,-9.28 -9.19,-10.77l-0.88,3.04c4.36,1.1 6.35,3.65 6.51,7.73l-8.17,0l0,2.87l31.77,0c2.32,0 3.43,-0.85 3.92,-2.13c0.97,1.28 2.22,2.13 6.18,2.13l14.93,0l0,-19.46l-3.65,0zm-29.99,16.59c-2.02,0 -3.04,-1.3 -3.04,-3.9s1.52,-3.69 3.1,-3.69c2.07,0 3.03,1.32 3.03,3.75c0,2.57 -1.34,3.84 -3.09,3.84m20.81,0l-2.11,0c-2.86,0 -4.13,-1.28 -4.13,-3.87c0,-2.16 1.21,-3.73 3.28,-3.73c1.85,0 2.95,1.16 2.95,3.91l0,3.68l0.01,0.01z"/>
    <rect id="svg_79" height="19.46" width="3.65" y="51.99" x="127.47"/>
    <path id="svg_80" d="m163.86,68.58l0,2.87l-17.08,0l0,0.11c0,3.54 -1.21,6.91 -6.82,6.91c-0.85,0 -1.65,-0.11 -2.31,-0.28l0.28,-2.91c0.66,0.2 1.36,0.34 2.24,0.34c1.87,0 2.97,-0.89 2.97,-3.87l0,-13.28l3.65,0l0,10.1l7.11,0c-1.21,-0.73 -2.13,-2.27 -2.13,-4.12c0,-3.42 2.35,-6.35 7.21,-6.35c1.88,0 3.43,0.53 3.43,0.53l-0.64,2.9s-1.27,-0.58 -2.87,-0.58c-2.07,0 -3.48,1.38 -3.48,3.5c0,2.35 1.91,4.12 6.29,4.12l2.16,0l-0.01,0.01z"/>
    <path id="svg_81" d="m185.11,53.15c-0.99,0 -1.8,0.83 -1.8,1.8s0.81,1.8 1.8,1.8s1.8,-0.83 1.8,-1.8s-0.83,-1.8 -1.8,-1.8m2.29,-3.62c-0.99,0 -1.8,0.83 -1.8,1.79s0.81,1.8 1.8,1.8s1.8,-0.84 1.8,-1.8s-0.8,-1.79 -1.8,-1.79m2.27,3.62c-0.97,0 -1.8,0.83 -1.8,1.8s0.83,1.8 1.8,1.8s1.78,-0.83 1.78,-1.8s-0.79,-1.8 -1.78,-1.8"/>
    <path id="svg_82" d="m220.75,51.99l0,16.59l-5.06,0l0,-4.12c0,-3.86 -1.93,-6.35 -6.24,-6.35c-4.78,0 -7.19,3.21 -7.19,6.71c0,2.84 -1.07,3.76 -2.73,3.76l-2.5,0c0.08,-1.22 0.11,-2.46 0.11,-3.57c0,-2.73 -0.36,-5.43 -0.89,-7.65l-3.56,0.5c0.47,2.1 0.81,4.64 0.81,7.4c0,0.86 -0.05,2.2 -0.16,3.32l-0.75,0c-2.54,0 -3.28,-0.44 -3.28,-2.62l0,-6.93l-3.5,0l0,6.24c0,2.68 -0.8,3.54 -2.24,3.54c-1.63,0 -1.91,-1.08 -1.91,-3.57l0,-5.1l-3.65,0l0,5.03c0,2.7 -0.68,3.43 -2.48,3.43l-4.94,0l0,-16.59l-3.65,0l0,19.46l8.55,0c2.01,0 3.12,-0.66 3.67,-1.93c0.45,1.32 1.91,2.15 3.7,2.15c2.16,0 3.62,-0.94 4.17,-2.13c0.8,1.52 2.27,1.91 5.17,1.91l7.74,0c2.31,0 3.42,-0.85 3.91,-2.13c0.97,1.28 2.22,2.13 6.18,2.13l14.36,0l0,-19.46l-3.64,0l0,-0.02zm-8.61,16.59l-2.11,0c-2.86,0 -4.13,-1.28 -4.13,-3.87c0,-2.16 1.21,-3.73 3.28,-3.73c1.85,0 2.95,1.16 2.95,3.91l0,3.68l0.01,0.01z"/>
    <rect id="svg_83" height="19.46" width="3.64" y="51.99" x="228.81"/>
    <path id="svg_84" d="m236.35,78.05l0.22,-2.98s2.15,0.47 4.31,0.47c2.87,0 4.78,-1.08 4.78,-3.67l0,-0.41l-2.18,0c-5.36,0 -7.37,-2.48 -7.37,-6.41c0,-3.62 2.24,-6.93 7.29,-6.93c3.29,0 5.8,0.97 5.8,0.97l0,12.43c0,3.81 -2.49,6.9 -8.64,6.9c-2.07,0 -4.2,-0.36 -4.2,-0.36m9.3,-16.58s-1.05,-0.5 -2.62,-0.5c-2.07,0 -3.29,1.57 -3.29,3.73c0,2.51 1.24,3.87 4.14,3.87l1.77,0l0,-7.1z"/>
    <path id="svg_85" d="m267.23,53.01c-0.99,0 -1.8,0.83 -1.8,1.79s0.78,1.8 1.8,1.8s1.8,-0.83 1.8,-1.8s-0.83,-1.79 -1.8,-1.79m-4.42,0c-0.99,0 -1.79,0.83 -1.79,1.79s0.74,1.8 1.79,1.8s1.79,-0.79 1.79,-1.8s-0.79,-1.79 -1.79,-1.79"/>
    <path id="svg_86" d="m283.64,58.12c-4.78,0 -7.18,3.21 -7.18,6.71c0,1.95 0.52,3.17 1.53,3.93c-0.13,-0.03 -0.68,-0.18 -1.53,-0.18l-5.31,0l0,-9.5s-2.51,-0.97 -5.79,-0.97c-5.06,0 -7.29,3.32 -7.29,6.93c0,3.92 2.01,6.4 7.37,6.4l24.45,0l0,-6.99c0,-3.86 -1.93,-6.35 -6.24,-6.35m-16.04,10.48l-1.76,0c-2.9,0 -4.14,-1.36 -4.14,-3.87c0,-2.16 1.21,-3.73 3.28,-3.73c1.58,0 2.62,0.5 2.62,0.5l0,7.1zm18.71,0l-2.1,0c-2.87,0 -4.13,-1.28 -4.13,-3.87c0,-2.16 1.21,-3.73 3.28,-3.73c1.85,0 2.95,1.16 2.95,3.91l0,3.68l0,0.01z"/>
    <path id="svg_87" d="m336.63,51.99l0,16.59l-5.05,0l0,-4.12c0,-3.86 -1.93,-6.35 -6.24,-6.35c-4.78,0 -7.18,3.21 -7.18,6.71c0,2.84 -1.07,3.76 -2.73,3.76l-1.43,0c-0.28,-5.3 -2.62,-8.07 -6.1,-9.64l6.74,-4.05l0,-3.62l-10.94,6.84l0,2.68c4.4,1.03 6.6,3.51 6.74,7.79l-11.42,0l0,-10.1l-3.64,0l0,13.28c0,2.97 -1.11,3.87 -2.99,3.87c-0.88,0 -1.58,-0.14 -2.24,-0.34l-0.28,2.91c0.66,0.17 1.47,0.28 2.31,0.28c5.61,0 6.82,-3.37 6.82,-6.91l0,-0.11l16.8,0c2.32,0 3.43,-0.85 3.92,-2.13c0.97,1.28 2.22,2.13 6.18,2.13l14.36,0l0,-19.46l-3.65,0l0.02,-0.01zm-8.6,16.59l-2.1,0c-2.87,0 -4.14,-1.28 -4.14,-3.87c0,-2.16 1.22,-3.73 3.3,-3.73c1.85,0 2.95,1.16 2.95,3.91l0,3.68l-0.01,0.01z"/>
    <rect id="svg_88" height="19.46" width="3.64" y="51.99" x="344.7"/>
   </g>
  </g>
 </g>
</svg>